<svg viewBox="0 0 876 417" xmlns="http://www.w3.org/2000/svg" xmlns:xlink="http://www.w3.org/1999/xlink"><clipPath id="a"><path d="m0 0h876v417h-876z"/></clipPath><linearGradient id="b" gradientTransform="matrix(.72188102 -.69201719 .69201719 .72188102 53.69 278.87)" gradientUnits="userSpaceOnUse" x1="-146.55" x2="568.87" y1="128.37" y2="128.37"><stop offset="0" stop-color="#ad1c5a"/><stop offset=".36" stop-color="#c42351"/><stop offset=".72" stop-color="#d52849"/><stop offset="1" stop-color="#db2a47"/></linearGradient><linearGradient id="c" gradientTransform="matrix(-.03 -1 1 -.03 313.41 778.35)" x1="403.4" x2="900.72" xlink:href="#b" y1="-110.08" y2="-110.08"/><radialGradient id="d" cx="1341.12" cy="502.84" gradientTransform="matrix(-3.78 .26 -.22 -4.5 6013.63 2348.75)" gradientUnits="userSpaceOnUse" r="147.95"><stop offset="0" stop-color="#754153"/><stop offset=".01" stop-color="#774355"/><stop offset=".14" stop-color="#9b7582"/><stop offset=".28" stop-color="#b99fa8"/><stop offset=".42" stop-color="#d3c2c8"/><stop offset=".56" stop-color="#e6dde0"/><stop offset=".7" stop-color="#f4f0f1"/><stop offset=".85" stop-color="#fcfbfc"/><stop offset="1" stop-color="#fff"/></radialGradient><linearGradient id="e" gradientTransform="matrix(-.03 -1 1 -.03 313.41 778.35)" x1="286.89" x2="1012.35" xlink:href="#b" y1="362.27" y2="362.27"/><radialGradient id="f" cx="1339.63" cy="516.11" gradientTransform="matrix(-3.78 .26 -.22 -4.5 5979.85 2357.32)" r="147.95" xlink:href="#d"/><radialGradient id="g" cx="1550.45" cy="443.34" gradientTransform="matrix(.14 -3.76 4.53 .12 -1948.98 5993.44)" r="87.78" xlink:href="#d"/><radialGradient id="h" cx="1365.44" cy="615.97" gradientTransform="matrix(-3.78 .26 -.22 -4.5 5754.53 2497.64)" r="17.15" xlink:href="#d"/><linearGradient id="i" gradientTransform="matrix(.81187978 -.58382465 .58382465 .81187978 159.22 206.55)" x1="-296.18" x2="134.81" xlink:href="#b" y1="187.87" y2="187.87"/><linearGradient id="j" gradientTransform="matrix(-.03 -1 1 -.03 313.41 778.35)" x1="257.74" x2="843.42" xlink:href="#b" y1="448.58" y2="448.58"/><linearGradient id="k" gradientTransform="matrix(-.03 -1 1 -.03 313.41 778.35)" x1="668.62" x2="756.56" xlink:href="#b" y1="173.63" y2="173.63"/><radialGradient id="l" cx="1439.14" cy="642.16" gradientTransform="matrix(-3.78 .26 -.22 -4.5 5747.48 2671.68)" r="17.15" xlink:href="#d"/><linearGradient id="m" gradientTransform="matrix(.79789966 -.60279029 .60279029 .79789966 -273.34 623.05)" x1="589.89" x2="707.36" xlink:href="#b" y1="-122.95" y2="-122.95"/><g clip-path="url(#a)"><path d="m-21.4 17.36c23-31.86 56.4-53.36 91.61-68.81 34.86-15.28 75.17-24.55 112.67-14.5 86.33 23.24 118.42 114.39 168.54 178.95 27.48 35.42 69.33 24.15 106.67 15.15 37.83-9.11 75.4-20.08 114-25.1 36.91-4.77 81.37-4.63 113.91 16.29 33.4 21.46 40.83 64.81 37.39 102.07-1.68 18.13-5.69 35.88-10 53.51-46.56 122.76-143.83 222.28-262 274.49-66.3 29.27-140.77 43.82-212.93 36.44-82.86-8.48-156.12-55.73-207.41-121.51-48.17-61.78-75.6-138.24-88.58-215.47s-11.1-166.06 36.13-231.51z" fill="url(#b)"/><path d="m492.51 261.62c-10.57 29.9-31.51 54.28-55.13 74.38-23.38 19.9-52.38 36.49-83.5 37.48-71.67 2.27-116.79-60.42-169.84-98.43-29.09-20.84-58.79-2.39-85.52 13.25-27.08 15.86-53.55 33.08-82.18 46-27.34 12.27-61.57 22.55-91.34 14.05-30.52-8.72-45.95-40.36-51.65-69.86-2.77-14.34-3.65-28.94-4.26-43.53 8.36-105.4 61-204.74 140.29-272.55 44.49-38 98.57-66.62 155.77-77.79 65.67-12.82 132.65 6.45 186.85 45.11 51 36.32 89.19 88.77 116.48 145.2s45.74 125.27 24.03 186.69z" fill="url(#c)" opacity=".9"/><ellipse cx="836.31" cy="434.9" fill="url(#d)" rx="559.95" ry="666.92" transform="matrix(.832438 -.5541182 .5541182 .832438 -100.85 536.35)"/><path d="m292 220c-7.82-38.78-1.12-78.55 11.19-115.58 12.16-36.72 32.34-73.55 64.81-95.27 74.66-50 162.47-13.39 243-8.24 44.17 2.82 64-36.49 82.39-70.86 18.67-34.81 35.8-70.67 58-103.36 21.2-31.22 51-64.86 88-75.6 38-11 74.48 12.35 99.3 39.89 12.07 13.39 22.31 28.31 32.23 43.4 58.22 117.46 65.6 257.88 24.52 382.55-23 69.92-62.27 136.19-115.9 186-61.57 57.21-145 81.22-227.15 76.16-77.19-4.75-151.19-35.07-216.08-76.88s-128.31-102.61-144.31-182.21z" fill="url(#e)"/><ellipse cx="805.24" cy="383.34" fill="url(#f)" rx="559.95" ry="666.92" transform="matrix(.832438 -.5541182 .5541182 .832438 -77.48 510.49)"/><ellipse cx="280.79" cy="212.55" fill="url(#g)" rx="397.85" ry="330.43" transform="matrix(.26100999 -.9653361 .9653361 .26100999 2.33 428.15)"/><ellipse cx="460.6" cy="80.98" fill="url(#h)" rx="64.9" ry="77.3" transform="matrix(.832438 -.5541182 .5541182 .832438 32.32 268.82)"/><path d="m132.25 44.68c94.13 5.08 132.88 62.75 160.67 142.54 23.77 68.27 33.39 150.47 83.24 198.94 49.7 48.33 113.16 66.63 135.65 134.9 30.19 91.53-27.62 167.81-100.67 199.38-101.3 43.77-183.14-14.12-209.24-100.22-21.61-71.22-40.58-146.49-125.42-194.83-62.85-35.81-155.88-15.83-188.48-93.13-36.95-87.67 70.15-296.96 244.25-287.58z" fill="url(#i)" opacity=".37"/><path d="m396.34 237.12c23.45-91.65 85.89-123.26 167.16-141.69 69.5-15.77 149.5-16.14 205.41-59.63 55.73-43.36 85.67-103.52 155-118 92.89-19.46 153.9 45.54 169.42 120.58 21.52 104-49.65 177.83-136.58 193.92-72 13.32-147.16 23.62-209.86 101.4-46.48 57.59-45.89 150.93-125.77 174.3-90.58 26.59-268.12-101.37-224.78-270.88z" fill="url(#j)"/><ellipse cx="464.47" cy="60.64" fill="url(#k)" rx="43.05" ry="43.96"/><ellipse cx="169.33" cy="156.34" fill="url(#l)" rx="64.9" ry="77.3" transform="matrix(.832438 -.5541182 .5541182 .832438 -58.26 120.04)"/><ellipse cx="170.05" cy="133.93" fill="url(#m)" rx="59.07" ry="58.1" transform="matrix(.57743022 -.81644004 .81644004 .57743022 -37.48 195.44)"/></g></svg>